<?xml version="1.0" standalone="no"?>
<!DOCTYPE svg PUBLIC "-//W3C//DTD SVG 20010904//EN"
 "http://www.w3.org/TR/2001/REC-SVG-20010904/DTD/svg10.dtd">
<svg version="1.0" xmlns="http://www.w3.org/2000/svg"
 width="512.000000pt" height="512.000000pt" viewBox="0 0 512.000000 512.000000"
 preserveAspectRatio="xMidYMid meet">
<metadata>
Created by potrace 1.14, written by Peter Selinger 2001-2017
</metadata>
<g transform="translate(0.000000,512.000000) scale(0.100000,-0.100000)"
fill="#000000" stroke="none">
<path d="M2568 5089 c-13 -17 -23 -34 -24 -37 -2 -31 -29 -154 -33 -156 -3 -2
-51 -7 -106 -10 -56 -4 -110 -8 -120 -10 -11 -2 -42 -7 -70 -10 -27 -4 -57 -9
-65 -11 -8 -2 -31 -6 -50 -9 -48 -7 -286 -73 -310 -86 -16 -8 -23 -4 -47 27
-15 21 -34 44 -40 51 -7 7 -13 17 -13 21 0 4 -14 21 -30 38 -25 25 -37 31 -63
27 -66 -8 -81 -66 -52 -193 9 -35 14 -65 13 -66 -2 -1 -47 -25 -100 -53 -158
-83 -346 -218 -481 -346 -15 -14 -31 -26 -34 -26 -3 0 -45 22 -93 50 -95 54
-121 57 -156 16 -40 -45 -26 -90 69 -218 l20 -27 -42 -49 c-77 -92 -193 -276
-262 -416 -38 -77 -69 -146 -69 -153 0 -13 -46 -12 -153 3 -21 3 -51 2 -67 -1
-50 -11 -73 -97 -38 -142 6 -7 45 -33 89 -58 43 -25 79 -49 79 -54 0 -5 -11
-57 -24 -117 -41 -184 -54 -296 -55 -499 l-1 -100 -97 -30 c-122 -37 -137 -49
-137 -109 0 -76 22 -89 174 -102 41 -3 76 -7 77 -8 2 -1 5 -15 18 -91 24 -130
87 -353 125 -440 5 -11 23 -51 39 -88 l30 -68 -22 -22 c-12 -12 -43 -40 -67
-61 -25 -22 -51 -48 -58 -58 -33 -46 -21 -114 24 -139 22 -12 37 -9 135 23
l109 36 60 -86 c33 -48 70 -99 82 -114 13 -15 34 -42 48 -60 13 -18 82 -91
153 -161 l129 -128 -41 -93 c-56 -127 -53 -181 10 -205 36 -13 67 4 153 86 75
71 76 71 98 54 39 -30 189 -115 278 -158 73 -35 155 -67 320 -126 l35 -13 1
-116 c1 -125 12 -160 54 -173 29 -9 75 11 88 38 35 70 82 181 82 193 0 8 3 13
8 11 11 -8 114 -23 216 -32 103 -9 357 -5 500 8 12 1 20 -6 22 -21 6 -36 83
-194 102 -208 20 -16 56 -18 82 -4 28 15 36 56 35 173 l-1 107 41 11 c173 45
401 137 544 219 l87 49 74 -71 c99 -93 112 -102 153 -94 71 13 76 76 17 209
-23 54 -41 99 -39 100 2 2 43 36 91 76 111 92 251 241 335 353 36 49 68 88 72
88 4 0 11 -4 17 -9 20 -20 206 -70 228 -61 41 15 52 40 47 107 -1 21 -73 98
-143 153 l-27 21 37 72 c62 118 143 333 172 457 6 25 13 54 15 65 3 11 8 35
11 53 4 23 11 32 23 31 30 -5 195 13 217 23 27 13 42 43 40 83 -3 59 -19 72
-134 108 l-107 34 2 39 c3 64 2 286 -1 334 -6 77 -16 164 -21 190 -33 171 -39
148 56 200 99 54 119 73 119 116 0 89 -33 106 -173 88 -51 -7 -95 -9 -98 -5
-3 3 -18 40 -34 81 -46 123 -142 308 -223 430 -43 63 -78 118 -80 122 -2 4 22
42 52 84 31 42 57 83 57 90 5 52 0 73 -21 94 -30 30 -67 24 -155 -26 -44 -25
-83 -46 -86 -47 -3 -1 -50 40 -104 91 -92 88 -279 236 -351 278 -18 11 -57 34
-87 52 l-55 32 20 88 c22 98 18 144 -15 167 -51 35 -89 15 -152 -79 -52 -79
-54 -80 -111 -55 -43 18 -251 85 -294 94 -93 20 -244 46 -292 51 -33 3 -67 7
-76 8 -9 2 -20 16 -24 32 -8 28 -11 43 -23 106 -14 72 -38 98 -89 98 -17 0
-33 -10 -48 -31z m-169 -431 c-16 -30 -4 -89 23 -110 12 -9 40 -18 60 -18 51
0 73 -32 56 -78 -7 -18 -17 -32 -23 -33 -5 0 -30 -2 -55 -4 -56 -3 -171 -15
-202 -20 -109 -20 -258 -59 -288 -75 -13 -7 -23 -2 -42 18 -40 42 -44 67 -12
89 62 42 75 61 72 103 -1 23 -8 46 -15 52 -7 6 -13 14 -13 18 0 6 108 36 170
46 14 3 48 9 75 14 28 5 75 12 105 15 30 3 56 8 58 9 2 2 12 2 22 -1 16 -4 18
-9 9 -25z m518 2 c26 -5 59 -12 73 -14 51 -9 157 -37 228 -59 72 -23 72 -24
52 -42 -17 -15 -20 -29 -18 -69 3 -46 6 -52 48 -81 52 -37 53 -55 11 -98 -27
-28 -30 -28 -57 -14 -79 40 -333 106 -474 123 -55 6 -64 10 -66 22 0 4 -4 19
-8 34 -12 42 8 68 54 68 59 0 92 33 92 93 0 52 -2 51 65 37z m-1363 -249 c-7
-39 20 -89 51 -97 13 -3 44 1 69 9 43 15 45 14 66 -7 11 -13 23 -35 26 -49 4
-24 -2 -30 -64 -61 -92 -46 -228 -139 -332 -225 -47 -39 -87 -70 -90 -68 -3 2
-19 9 -36 16 -17 6 -37 22 -43 35 -11 20 -9 28 12 59 33 48 29 102 -10 136
l-27 24 29 24 c44 36 189 139 222 158 15 8 48 29 73 45 57 36 59 36 54 1z
m2199 -83 c89 -60 157 -113 244 -192 43 -38 43 -39 21 -50 -44 -22 -59 -81
-33 -126 38 -66 39 -68 21 -86 -10 -9 -33 -25 -51 -34 l-34 -17 -73 72 c-79
78 -212 182 -313 246 -55 35 -65 45 -65 69 0 16 10 41 23 56 23 27 24 27 69
12 38 -13 49 -14 76 -2 30 12 50 50 44 82 -4 19 4 15 71 -30z m-993 -122 c493
-63 938 -342 1205 -755 82 -127 176 -336 206 -455 5 -23 12 -50 15 -61 41
-159 54 -438 29 -600 -57 -366 -215 -680 -469 -938 -267 -270 -615 -438 -1001
-485 -33 -4 -125 -7 -205 -6 -164 0 -300 20 -455 66 -108 32 -127 39 -255 101
-282 134 -534 362 -695 629 -52 86 -65 113 -140 283 -28 63 -73 244 -92 370
-10 67 -10 345 0 420 25 183 92 386 183 554 72 134 108 185 205 300 231 271
571 478 900 547 91 19 132 25 194 30 39 4 71 7 73 9 5 5 250 -3 302 -9z
m-1880 -371 c0 -32 36 -65 72 -65 16 0 41 12 61 30 39 34 63 37 93 12 42 -33
38 -52 -32 -147 -77 -104 -130 -193 -185 -309 l-39 -83 -44 -1 c-47 -1 -99 28
-91 51 27 81 -2 147 -66 147 -10 0 -19 3 -19 7 0 29 223 382 243 383 4 0 7
-11 7 -25z m3310 -115 c54 -46 104 -44 131 7 13 24 13 23 56 -44 45 -69 145
-261 157 -299 6 -18 2 -21 -21 -21 -17 0 -36 -11 -51 -28 -21 -25 -23 -34 -17
-86 6 -52 5 -58 -15 -69 -12 -6 -44 -13 -70 -15 -48 -4 -49 -4 -61 33 -6 20
-29 75 -50 120 -22 46 -39 86 -39 88 0 7 -104 180 -131 217 -30 42 -31 40 23
98 33 36 45 36 88 -1z m-3436 -637 c14 -10 23 -24 21 -31 -8 -23 -43 -206 -50
-262 -6 -46 -12 -152 -14 -269 -1 -16 -6 -21 -15 -18 -8 3 -22 -1 -33 -8 -10
-8 -33 -15 -52 -15 -38 0 -60 21 -61 58 -1 60 -67 99 -115 68 -17 -11 -23 -12
-20 -4 2 7 6 57 9 110 3 53 8 103 11 110 2 7 6 33 9 58 5 48 27 162 32 169 2
2 13 -8 25 -23 17 -22 28 -26 57 -24 29 2 41 10 59 38 51 79 51 79 82 70 17
-5 41 -17 55 -27z m3794 -144 c22 -44 59 -57 100 -36 17 8 31 12 30 9 -1 -4 1
-36 5 -72 5 -36 10 -85 13 -110 8 -65 12 -213 7 -227 -4 -9 -11 -9 -28 -1 -46
21 -105 -24 -105 -81 0 -31 -25 -54 -59 -53 -18 0 -38 5 -44 10 -7 6 -23 12
-35 14 l-24 3 -3 185 c-3 181 -6 216 -25 313 -13 63 -13 67 5 67 8 0 24 9 34
19 26 26 71 31 94 11 10 -9 25 -32 35 -51z m-3831 -645 c7 3 13 2 14 -2 12
-115 80 -361 133 -476 l25 -55 -31 -32 c-18 -17 -45 -36 -61 -42 -27 -9 -32
-6 -71 37 -48 51 -78 58 -118 27 l-24 -20 -42 122 c-37 110 -82 267 -82 289 0
5 9 4 20 -2 26 -14 67 -3 85 23 8 12 15 42 15 68 0 26 6 51 13 57 18 15 58 19
86 10 14 -5 30 -7 38 -4z m3804 -115 c15 -7 19 -21 19 -60 0 -40 5 -55 26 -75
16 -17 32 -24 45 -21 11 3 19 0 19 -6 0 -31 -84 -267 -120 -337 -20 -40 -21
-40 -45 -24 -38 25 -89 11 -115 -30 -35 -57 -66 -55 -132 6 -36 35 -36 35 -19
64 19 32 94 200 97 218 1 6 13 43 27 81 13 39 24 72 24 75 0 3 3 14 6 25 3 11
8 36 11 55 l6 35 66 2 c37 1 75 -2 85 -8z m-3496 -656 c55 -87 146 -197 240
-289 88 -86 92 -92 80 -115 -7 -13 -18 -36 -23 -51 -18 -44 -41 -49 -98 -22
-57 27 -90 23 -116 -15 -14 -20 -17 -19 -84 50 -86 88 -79 80 -147 167 l-58
72 25 12 c41 18 55 83 29 141 -15 36 -15 38 3 52 10 8 30 17 44 21 14 3 32 9
40 14 26 16 34 11 65 -37z m3065 -41 c0 -11 45 -32 69 -32 10 0 28 -11 40 -24
22 -23 22 -26 7 -48 -23 -33 -21 -99 5 -126 l20 -23 -31 -37 c-71 -82 -242
-252 -254 -252 -2 0 -6 9 -9 20 -8 30 -52 46 -88 32 -95 -39 -86 -38 -114 -12
-14 13 -25 31 -25 40 0 8 -7 25 -15 37 -14 20 -11 24 53 76 97 80 254 248 307
330 17 26 35 36 35 19z m-2512 -499 c87 -56 245 -132 356 -172 l100 -36 -3
-55 c-4 -82 -12 -91 -77 -89 -45 2 -59 -2 -79 -21 -14 -13 -25 -32 -25 -43 0
-10 -3 -17 -8 -15 -4 2 -40 16 -80 32 -41 15 -119 52 -175 80 -82 42 -101 56
-99 71 1 11 5 36 8 56 6 33 2 42 -35 82 l-42 45 48 50 c26 28 49 50 51 51 2 1
29 -15 60 -36z m1960 -41 c7 -16 23 -34 36 -41 13 -7 29 -24 34 -37 10 -20 7
-26 -17 -47 -39 -33 -49 -55 -44 -105 l3 -43 -82 -38 c-88 -41 -225 -94 -270
-105 -25 -6 -28 -4 -28 18 0 40 -44 68 -102 63 -42 -4 -51 -1 -63 17 -17 26
-18 126 -1 131 110 29 159 46 256 85 63 26 147 65 185 87 39 23 72 42 75 42 3
1 11 -12 18 -27z m-1193 -229 c64 -8 340 -10 415 -3 l45 5 6 -38 c3 -21 11
-43 18 -50 21 -21 13 -56 -19 -72 -16 -8 -36 -15 -44 -15 -20 0 -46 -41 -49
-77 l-2 -28 -160 -1 c-88 0 -181 1 -206 4 -45 4 -47 5 -42 33 7 45 -30 98 -68
99 -9 0 -27 9 -40 19 l-24 19 21 44 c12 23 20 51 18 61 -2 14 4 17 34 12 21
-2 64 -8 97 -12z"/>
<path d="M2511 4151 c-10 -10 -32 -61 -49 -112 -44 -133 -45 -164 -7 -205 14
-15 24 -28 22 -30 -1 -1 -26 -5 -55 -7 l-52 -5 20 28 c36 50 27 99 -36 205
-70 121 -104 141 -158 93 -27 -25 -32 -45 -42 -180 -4 -49 -11 -88 -15 -88 -5
0 -9 6 -9 13 0 6 -36 49 -80 95 -79 82 -100 93 -145 76 -23 -9 -42 -54 -39
-94 6 -93 15 -184 20 -192 9 -13 -5 -9 -23 8 -10 9 -53 40 -96 70 -86 60 -123
68 -157 32 -28 -30 -25 -85 9 -188 15 -47 27 -86 26 -87 -1 -2 -48 18 -105 43
-109 48 -134 50 -170 14 -33 -33 -26 -81 29 -178 27 -48 48 -88 47 -89 -1 -2
-48 7 -104 18 -56 12 -112 19 -125 15 -28 -7 -50 -41 -53 -84 -2 -34 12 -56
94 -152 l44 -50 -101 0 c-55 0 -111 -5 -125 -11 -43 -20 -58 -96 -26 -135 7
-7 46 -39 87 -71 l76 -58 -34 -7 c-19 -4 -47 -10 -64 -13 -132 -26 -154 -45
-145 -130 3 -32 25 -50 115 -91 47 -21 85 -42 85 -45 0 -3 -38 -23 -84 -43
-47 -21 -92 -46 -100 -55 -9 -10 -17 -37 -18 -61 -1 -36 3 -47 26 -67 15 -12
32 -23 39 -23 7 -1 50 -9 95 -19 l84 -17 -81 -62 c-93 -72 -94 -74 -97 -124
-1 -27 4 -44 22 -63 22 -24 28 -25 134 -25 l112 0 -30 -37 c-17 -21 -39 -47
-49 -58 -52 -56 -61 -75 -58 -118 4 -48 32 -77 74 -77 15 0 67 9 116 19 49 11
90 19 91 18 2 -1 -18 -38 -43 -82 -57 -101 -65 -149 -29 -187 14 -16 34 -28
45 -28 12 0 62 18 113 41 51 22 98 43 105 46 9 4 9 -6 -2 -39 -7 -23 -21 -65
-29 -91 -36 -109 -8 -176 69 -167 21 2 163 98 197 134 12 11 18 16 14 9 -4 -7
-9 -49 -12 -95 -3 -46 -7 -93 -9 -106 -5 -32 14 -81 35 -92 52 -28 76 -13 199
124 41 45 43 51 38 95 -3 25 -8 55 -12 67 -7 21 -6 21 44 5 28 -9 51 -19 51
-23 0 -4 -14 -15 -30 -25 -17 -9 -33 -26 -36 -36 -7 -21 -7 -110 0 -143 2 -12
7 -45 11 -75 4 -40 13 -60 31 -76 52 -47 100 -22 154 82 3 6 18 31 33 57 36
59 38 114 7 158 -21 30 -21 32 -4 26 10 -3 36 -6 57 -8 20 -1 37 -5 37 -8 0
-3 -12 -16 -25 -29 -19 -18 -25 -33 -25 -68 0 -51 55 -219 80 -246 23 -25 77
-25 100 -1 20 21 86 208 84 239 -1 11 -2 28 -3 38 -1 10 -13 29 -27 42 -15 14
-25 26 -23 26 17 6 99 6 99 1 0 -4 -7 -16 -15 -26 -30 -40 -19 -91 42 -192 31
-52 64 -99 74 -104 48 -26 102 5 113 65 8 42 20 165 19 193 -1 27 11 29 23 3
5 -11 41 -54 81 -95 82 -86 114 -96 158 -52 25 25 25 27 11 211 -4 39 -3 65 1
60 5 -6 47 -39 95 -73 105 -76 153 -82 182 -23 17 34 12 68 -23 174 -16 49
-24 86 -17 83 6 -2 53 -23 104 -45 51 -23 102 -41 113 -41 11 0 31 11 44 25
39 38 33 85 -24 185 -27 47 -48 86 -46 88 2 2 20 -1 41 -7 50 -13 87 -20 146
-28 41 -5 49 -3 72 20 21 21 25 33 22 67 -4 41 -12 53 -95 150 l-44 52 59 -2
c143 -4 164 -1 189 25 43 42 27 119 -33 157 -47 30 -127 88 -122 89 6 1 35 8
53 12 6 2 41 10 76 17 85 17 115 44 114 99 -1 55 -18 72 -119 117 -46 21 -84
41 -84 44 0 4 35 21 78 40 103 44 126 67 125 122 -1 58 -29 78 -150 103 l-96
21 81 59 c103 76 120 111 87 174 -18 36 -37 41 -158 41 l-99 0 53 63 c30 34
57 64 60 67 35 29 33 114 -3 144 -26 21 -58 18 -207 -15 -24 -5 -45 -8 -46 -7
-2 2 19 41 46 88 52 91 61 138 34 177 -28 40 -64 38 -175 -11 -56 -26 -104
-46 -105 -46 -2 0 10 38 25 84 40 119 42 159 10 194 -32 35 -68 28 -151 -29
-41 -28 -84 -60 -97 -72 l-23 -21 7 79 c13 140 10 186 -16 207 -12 10 -35 18
-50 18 -29 0 -50 -17 -143 -120 -56 -62 -58 -67 -55 -110 3 -25 8 -52 12 -61
7 -15 3 -15 -38 -2 -50 17 -57 28 -26 38 48 15 54 84 25 270 -7 44 -39 85 -66
85 -42 0 -70 -26 -123 -116 -60 -101 -72 -158 -41 -198 22 -29 18 -35 -18 -27
-18 5 -40 7 -50 5 -23 -3 -22 13 3 26 21 11 34 48 33 90 -1 43 -63 214 -85
233 -27 22 -73 22 -97 -2z m-317 -369 c14 -6 26 -15 26 -19 0 -5 -23 -16 -51
-25 l-51 -17 7 22 c4 12 10 40 12 61 5 40 6 40 19 15 7 -14 24 -30 38 -37z
m-282 -82 c2 -6 20 -17 41 -24 l38 -13 -52 -32 c-28 -17 -53 -30 -54 -29 -2 2
0 27 2 56 5 48 16 67 25 42z m1323 -78 c-1 -1 -21 8 -44 21 -40 23 -44 37 -11
37 10 0 24 7 31 17 12 14 15 11 20 -28 4 -24 5 -45 4 -47z m-575 -46 c73 -4
130 -14 130 -22 0 -4 -181 -255 -215 -298 -8 -11 -16 -18 -18 -15 -54 65 -224
310 -217 314 10 6 49 12 145 21 39 4 72 8 73 10 2 1 9 1 15 -1 7 -2 46 -6 87
-9z m-924 -51 c10 -2 24 -4 31 -4 10 -1 -77 -91 -88 -91 -2 0 -5 25 -5 55 -1
52 0 54 20 49 12 -3 31 -7 42 -9z m1712 -25 c-1 -22 -3 -40 -6 -40 -5 0 -74
60 -70 61 2 0 14 3 27 5 14 2 27 7 30 9 13 14 21 1 19 -35z m-428 -19 c83 -40
125 -67 201 -127 51 -41 68 -60 71 -84 3 -17 2 -33 -2 -35 -4 -2 -60 -3 -126
-1 l-118 4 -17 49 c-9 26 -31 86 -48 133 -17 47 -31 86 -31 88 0 5 13 0 70
-27z m-889 -88 c-22 -60 -43 -119 -48 -132 -9 -23 -13 -23 -149 -27 l-139 -4
70 68 c39 37 95 83 125 103 58 38 160 96 172 98 4 1 -10 -47 -31 -106z m-573
-118 c-22 -30 -43 -55 -46 -55 -3 0 -3 3 0 6 3 3 0 27 -7 54 l-13 49 47 3 c25
2 49 2 53 0 4 -1 -11 -27 -34 -57z m-101 -167 c-3 -7 -15 -37 -28 -67 l-23
-53 -16 33 c-20 40 -36 87 -25 77 4 -3 23 0 43 7 47 17 55 18 49 3z m2291 -11
c15 0 15 -7 -2 -48 l-14 -33 -21 42 c-26 52 -26 55 2 46 12 -4 28 -7 35 -7z
m-247 -90 c38 -73 85 -216 93 -282 4 -27 9 -58 12 -67 3 -10 4 -18 2 -18 -2 0
-90 29 -196 64 -106 36 -192 62 -192 59 0 -4 -3 -4 -6 -1 -5 6 20 51 41 74 5
6 51 68 100 137 101 142 92 140 146 34z m-1692 -92 c70 -97 97 -141 88 -146
-7 -4 -84 -31 -172 -59 -88 -29 -163 -54 -166 -56 -40 -23 20 215 89 354 28
58 38 70 48 60 6 -7 57 -76 113 -153z m-446 -97 c-7 -35 -15 -67 -16 -71 -1
-5 -17 12 -36 38 -18 25 -32 48 -30 49 7 6 84 45 90 46 4 0 0 -28 -8 -62z
m2459 -19 l-27 -31 -7 41 c-4 23 -10 46 -14 52 -3 6 12 1 35 -10 l41 -21 -28
-31z m-2483 -205 c-2 -26 -10 -55 -18 -65 -15 -18 -17 -17 -45 6 l-29 23 33
29 c19 15 39 33 44 40 16 18 17 17 15 -33z m2531 -34 c0 -3 -13 -16 -30 -28
l-30 -23 0 51 0 51 30 -23 c17 -12 30 -25 30 -28z m-267 -107 c-9 -95 -63
-280 -97 -337 -7 -12 -26 -43 -41 -71 l-28 -49 -28 99 c-15 55 -34 122 -42
148 l-15 48 91 73 c88 69 161 126 163 126 1 0 0 -17 -3 -37z m-1935 -80 c20
-16 43 -34 50 -40 7 -7 21 -18 32 -26 18 -12 17 -17 -18 -140 -20 -70 -39
-127 -43 -127 -8 0 -68 124 -90 187 -17 50 -17 53 2 89 10 21 19 49 19 61 0
29 3 29 48 -4z m2149 -103 c-18 -9 -33 -15 -35 -14 -2 1 0 24 4 50 l7 48 28
-33 28 -34 -32 -17z m-2437 -37 c0 -3 -84 42 -99 54 -2 1 1 9 8 16 9 12 18 7
51 -25 22 -22 40 -42 40 -45z m40 -124 c0 -6 9 -31 21 -56 11 -25 19 -47 17
-48 -3 -3 -88 15 -95 20 -7 5 42 103 49 99 4 -3 8 -10 8 -15z m2329 -50 c13
-38 13 -40 4 -37 -5 1 -18 -2 -31 -6 -13 -4 -26 -6 -28 -3 -6 6 28 77 37 77 4
0 12 -14 18 -31z m-529 -139 c58 -18 109 -36 113 -40 11 -9 -104 -116 -178
-165 -54 -35 -185 -105 -199 -105 -3 0 -5 90 -5 199 l0 199 82 -27 c45 -15
129 -43 187 -61z m-1050 -110 l0 -190 -27 11 c-81 30 -233 137 -304 213 l-39
41 167 57 c93 31 176 57 186 57 16 1 17 -14 17 -189z m-605 24 c11 -16 24 -32
30 -36 12 -9 9 -9 -58 -12 -33 -1 -46 3 -43 11 3 6 8 29 12 50 9 52 14 58 28
35 6 -11 20 -32 31 -48z m2051 13 c1 -7 5 -23 8 -37 6 -24 5 -25 -33 -25 -39
-1 -40 0 -26 20 9 11 20 30 27 43 11 22 20 22 24 -1z m-940 -207 c65 -44 115
-80 113 -81 -2 0 -13 -2 -24 -4 -103 -20 -243 -22 -350 -5 -38 6 -71 13 -73
15 -2 2 193 143 215 154 1 1 55 -35 119 -79z m-946 5 c24 -25 40 -45 35 -46
-14 -1 -45 -7 -71 -13 -21 -6 -22 -3 -21 49 1 30 4 55 7 55 3 0 26 -20 50 -45z
m1718 -24 l0 -39 -37 5 c-20 3 -38 7 -39 9 -5 3 61 63 70 64 4 0 7 -18 6 -39z
m-1468 -161 c0 -3 -20 -14 -45 -26 l-45 -21 0 31 c0 17 -3 41 -7 54 l-6 24 51
-29 c29 -15 52 -30 52 -33z m1255 -9 c0 -43 -2 -48 -15 -36 -8 8 -29 19 -45
25 l-30 12 45 23 c25 13 45 24 45 25 0 0 0 -22 0 -49z m-244 -89 c-6 -12 -11
-36 -11 -54 l-1 -33 -14 27 c-8 15 -24 29 -35 33 -11 3 -20 10 -20 13 0 7 82
40 88 36 2 -1 -1 -11 -7 -22z"/>
</g>
</svg>
