<svg width="24" height="24" viewBox="0 0 24 24" fill="none" xmlns="http://www.w3.org/2000/svg">
<path fill-rule="evenodd" clip-rule="evenodd" d="M18.45 2C19.58 2 20.5 2.92 20.5 4.06V22L18.35 20.1L17.14 18.98L15.86 17.79L16.39 19.64H5.05C3.92 19.64 3 18.72 3 17.58V4.06C3 2.92 3.92 2 5.05 2H18.45ZM14.59 15.06C16.8 14.99 17.65 13.54 17.65 13.54C17.65 10.32 16.21 7.71 16.21 7.71C14.77 6.63 13.4 6.66 13.4 6.66L13.26 6.82C14.96 7.34 15.75 8.09 15.75 8.09C14.71 7.52 13.69 7.24 12.74 7.13C12.02 7.05 11.33 7.07 10.72 7.15L10.55 7.17C10.2 7.2 9.35 7.33 8.28 7.8C7.91 7.97 7.69 8.09 7.69 8.09C7.69 8.09 8.52 7.3 10.32 6.78L10.22 6.66C10.22 6.66 8.85 6.63 7.41 7.71C7.41 7.71 5.97 10.32 5.97 13.54C5.97 13.54 6.81 14.99 9.02 15.06C9.02 15.06 9.39 14.61 9.69 14.23C8.42 13.85 7.94 13.05 7.94 13.05L8.22 13.22L8.26 13.25L8.29917 13.2725L8.31083 13.2775L8.35 13.3C8.6 13.44 8.85 13.55 9.08 13.64C9.49 13.8 9.98 13.96 10.55 14.07C11.3 14.21 12.18 14.26 13.14 14.08C13.61 14 14.09 13.86 14.59 13.65C14.94 13.52 15.33 13.33 15.74 13.06C15.74 13.06 15.24 13.88 13.93 14.25C14.23 14.63 14.59 15.06 14.59 15.06ZM9.94 10.39C9.37 10.39 8.92 10.89 8.92 11.5C8.92 12.11 9.38 12.61 9.94 12.61C10.51 12.61 10.96 12.11 10.96 11.5C10.97 10.89 10.51 10.39 9.94 10.39ZM13.59 10.39C13.02 10.39 12.57 10.89 12.57 11.5C12.57 12.11 13.03 12.61 13.59 12.61C14.16 12.61 14.61 12.11 14.61 11.5C14.61 10.89 14.16 10.39 13.59 10.39Z" fill="#42C2FF"/>
</svg>
